# This file uses meters as units for non-parametric coordinates.

mtllib Neuphe.mtl
g default
v 0.597669 17.656153 0.497104
v 0.345065 17.475718 0.749709
v 0.000000 17.364302 0.842169
v -0.345065 17.475718 0.749709
v -0.597669 17.656153 0.497104
v -0.690129 17.838190 0.152040
v -0.597669 17.940563 -0.193025
v -0.345065 17.940563 -0.445630
v 0.000000 17.940563 -0.538090
v 0.345065 17.940563 -0.445630
v 0.597669 17.940563 -0.193025
v 0.690129 17.838190 0.152040
v 0.145763 0.000000 0.084156
v 0.084156 0.000000 0.145763
v 0.000000 0.000000 0.168312
v -0.084156 0.000000 0.145763
v -0.145763 0.000000 0.084156
v -0.168312 0.000000 0.000000
v -0.145763 0.000000 -0.084156
v -0.084156 0.000000 -0.145763
v 0.000000 0.000000 -0.168312
v 0.084156 0.000000 -0.145763
v 0.145763 0.000000 -0.084156
v 0.168312 0.000000 0.000000
v 0.373438 9.151903 0.215604
v 0.431209 9.151903 -0.000000
v 0.373438 9.151903 -0.215604
v 0.215604 9.151903 -0.373438
v 0.000000 9.151903 -0.431208
v -0.215604 9.151903 -0.373438
v -0.373438 9.151903 -0.215604
v -0.431209 9.151903 -0.000000
v -0.373438 9.151903 0.215604
v -0.215604 9.151903 0.373438
v 0.000000 9.151903 0.431208
v 0.215604 9.151903 0.373438
v 0.300582 4.575952 0.173541
v 0.347082 4.575952 -0.000000
v 0.300582 4.575952 -0.173541
v 0.173541 4.575952 -0.300582
v 0.000000 4.575952 -0.347082
v -0.173541 4.575952 -0.300582
v -0.300582 4.575952 -0.173541
v -0.347082 4.575952 -0.000000
v -0.300582 4.575952 0.173541
v -0.173541 4.575952 0.300582
v 0.000000 4.575952 0.347082
v 0.173541 4.575952 0.300582
v 0.236186 2.287976 0.136362
v 0.272724 2.287976 -0.000000
v 0.236186 2.287976 -0.136362
v 0.136362 2.287976 -0.236186
v 0.000000 2.287976 -0.272724
v -0.136362 2.287976 -0.236186
v -0.236186 2.287976 -0.136362
v -0.272724 2.287976 -0.000000
v -0.236186 2.287976 0.136362
v -0.136362 2.287976 0.236186
v 0.000000 2.287976 0.272724
v 0.136362 2.287976 0.236186
v 0.191590 0.647458 0.110615
v 0.221229 0.647458 -0.000000
v 0.191590 0.647458 -0.110615
v 0.110615 0.647458 -0.191590
v 0.000000 0.647458 -0.221229
v -0.110615 0.647458 -0.191590
v -0.191590 0.647458 -0.110615
v -0.221229 0.647458 -0.000000
v -0.191590 0.647458 0.110615
v -0.110615 0.647458 0.191590
v 0.000000 0.647458 0.221229
v 0.110615 0.647458 0.191590
v -1.175243 18.604378 -0.496117
v -0.739555 18.768513 -0.814621
v 0.000000 18.859285 -0.990771
v 0.739555 18.768513 -0.814621
v 1.175243 18.604378 -0.496117
v -1.175243 18.920559 -0.333185
v -0.739555 19.084694 -0.651689
v 0.000000 19.175467 -0.827838
v 0.739555 19.084694 -0.651689
v 1.175243 18.920559 -0.333185
v -0.846337 19.389343 0.358306
v -0.508091 19.530523 0.084348
v 0.000000 19.598341 -0.047254
v 0.508092 19.530523 0.084348
v 0.846340 19.389343 0.358306
vt 0.045441 0.525736
vt 0.024669 0.525736
vt 0.024669 0.274834
vt 0.045441 0.274834
vt 0.003966 0.525736
vt 0.003966 0.274834
vt 0.234809 0.525736
vt 0.234809 0.274834
vt 0.214328 0.525736
vt 0.214328 0.274834
vt 0.193614 0.525736
vt 0.193614 0.274834
vt 0.172586 0.525736
vt 0.172586 0.274834
vt 0.174197 0.535976
vt 0.151357 0.274834
vt 0.124626 0.535976
vt 0.130112 0.274834
vt 0.075361 0.535976
vt 0.107924 0.274834
vt 0.033824 0.535976
vt 0.087627 0.274834
vt 0.066439 0.525736
vt 0.066439 0.274834
vt 0.045441 -0.000920
vt 0.024669 -0.000920
vt 0.003966 -0.000920
vt 0.234809 -0.000920
vt 0.214328 -0.000920
vt 0.193614 -0.000920
vt 0.172586 -0.000920
vt 0.151357 -0.000920
vt 0.130112 -0.000920
vt 0.107924 -0.000920
vt 0.087627 -0.000920
vt 0.066439 -0.000920
vt 0.045441 0.136921
vt 0.066439 0.136921
vt 0.087627 0.136921
vt 0.107924 0.136921
vt 0.130112 0.136921
vt 0.151357 0.136921
vt 0.172586 0.136921
vt 0.193614 0.136921
vt 0.214328 0.136921
vt 0.234809 0.136921
vt 0.003966 0.136921
vt 0.024669 0.136921
vt 0.045441 0.067974
vt 0.066439 0.067974
vt 0.087627 0.067974
vt 0.107924 0.067974
vt 0.130112 0.067974
vt 0.151357 0.067974
vt 0.172586 0.067974
vt 0.193614 0.067974
vt 0.214328 0.067974
vt 0.234809 0.067974
vt 0.003966 0.067974
vt 0.024669 0.067974
vt 0.045441 0.018550
vt 0.066439 0.018550
vt 0.087627 0.018550
vt 0.107924 0.018550
vt 0.130112 0.018550
vt 0.151357 0.018550
vt 0.172586 0.018550
vt 0.193614 0.018550
vt 0.214328 0.018550
vt 0.234809 0.018550
vt 0.003966 0.018550
vt 0.024669 0.018550
vt 0.215345 0.608332
vt 0.174197 0.608332
vt 0.124626 0.608332
vt 0.075361 0.608332
vt 0.033824 0.608332
vt 0.215345 0.636955
vt 0.174197 0.636955
vt 0.124626 0.636955
vt 0.075361 0.636955
vt 0.033824 0.636955
vt 0.215345 0.705750
vt 0.174197 0.705750
vt 0.124626 0.705750
vt 0.075361 0.705750
vt 0.033824 0.705750
vt 0.107924 0.525736
vt 0.087627 0.525736
vt 0.130112 0.525736
vt 0.151357 0.525736
vt 0.215345 0.535976
vt 0.255305 0.018550
vt 0.255305 -0.000920
vt 0.255305 0.067974
vt 0.255305 0.136921
vt 0.255305 0.274834
vt 0.255305 0.525736
vn 0.907606 -0.037711 0.418126
vn 0.563351 -0.045924 0.824941
vn 0.509316 -0.038948 0.859698
vn 0.871813 -0.033539 0.488689
vn 0.000000 -0.049720 0.998763
vn 0.000000 -0.041094 0.999155
vn -0.563351 -0.045924 0.824941
vn -0.509316 -0.038948 0.859698
vn -0.907606 -0.037711 0.418126
vn -0.871813 -0.033539 0.488689
vn -0.996889 -0.028463 -0.073501
vn -0.999605 -0.026666 -0.008849
vn -0.852664 -0.020464 -0.522058
vn -0.864027 -0.020151 -0.503042
vn -0.501184 -0.014490 -0.865220
vn -0.499034 -0.015501 -0.866444
vn 0.000000 -0.012160 -0.999926
vn 0.000000 -0.013806 -0.999905
vn 0.501184 -0.014490 -0.865220
vn 0.499034 -0.015501 -0.866444
vn 0.852664 -0.020464 -0.522058
vn 0.864027 -0.020151 -0.503042
vn 0.996889 -0.028463 -0.073501
vn 0.999605 -0.026666 -0.008849
vn 0.865809 -0.022375 0.499875
vn 0.999750 -0.022375 0.000000
vn 0.865809 -0.022375 -0.499875
vn 0.499875 -0.022375 -0.865809
vn 0.000000 -0.022375 -0.999750
vn -0.499875 -0.022375 -0.865809
vn -0.865809 -0.022375 -0.499875
vn -0.999750 -0.022375 -0.000000
vn -0.865809 -0.022375 0.499875
vn -0.499875 -0.022375 0.865809
vn 0.000000 -0.022375 0.999750
vn 0.499875 -0.022375 0.865809
vn 0.865580 -0.032082 0.499742
vn 0.999485 -0.032082 0.000000
vn 0.865580 -0.032082 -0.499742
vn 0.499743 -0.032082 -0.865580
vn 0.000000 -0.032082 -0.999485
vn -0.499743 -0.032082 -0.865580
vn -0.865580 -0.032082 -0.499742
vn -0.999485 -0.032082 -0.000000
vn -0.865580 -0.032082 0.499742
vn -0.499743 -0.032082 0.865580
vn 0.000000 -0.032082 0.999485
vn 0.499743 -0.032082 0.865580
vn 0.865220 -0.043129 0.499535
vn 0.999070 -0.043129 0.000000
vn 0.865220 -0.043129 -0.499535
vn 0.499535 -0.043129 -0.865220
vn 0.000000 -0.043129 -0.999070
vn -0.499535 -0.043129 -0.865220
vn -0.865220 -0.043129 -0.499535
vn -0.999070 -0.043129 -0.000000
vn -0.865220 -0.043129 0.499535
vn -0.499535 -0.043129 0.865220
vn 0.000000 -0.043129 0.999070
vn 0.499535 -0.043129 0.865220
vn 0.863147 -0.081459 0.498338
vn 0.996677 -0.081459 0.000000
vn 0.863147 -0.081459 -0.498338
vn 0.498338 -0.081459 -0.863147
vn 0.000000 -0.081459 -0.996677
vn -0.498338 -0.081459 -0.863147
vn -0.863147 -0.081459 -0.498338
vn -0.996677 -0.081459 -0.000000
vn -0.863147 -0.081459 0.498338
vn -0.498338 -0.081459 0.863147
vn 0.000000 -0.081459 0.996677
vn 0.498338 -0.081459 0.863147
vn -0.281365 -0.512756 -0.811120
vn -0.428676 -0.588262 -0.685700
vn -0.428676 -0.588262 -0.685700
vn -0.295230 -0.520519 -0.801186
vn 0.000000 -0.458966 -0.888454
vn 0.000000 -0.458966 -0.888454
vn 0.281365 -0.512756 -0.811120
vn 0.295230 -0.520519 -0.801186
vn 0.428676 -0.588262 -0.685700
vn 0.428676 -0.588262 -0.685700
vn -0.427947 0.414006 -0.803406
vn -0.635186 0.353795 -0.686563
vn -0.635186 0.353795 -0.686563
vn -0.427946 0.414006 -0.803406
vn -0.258819 0.442463 -0.858627
vn -0.258819 0.442463 -0.858627
vn 0.427947 0.414006 -0.803406
vn 0.258819 0.442463 -0.858627
vn 0.258819 0.442463 -0.858627
vn 0.427946 0.414006 -0.803406
vn 0.635185 0.353795 -0.686563
vn 0.635185 0.353795 -0.686563
vn -0.368219 0.842789 -0.392584
vn -0.537527 0.789925 -0.295100
vn -0.537527 0.789925 -0.295100
vn -0.370115 0.842405 -0.391624
vn -0.000000 0.882361 -0.470574
vn -0.000000 0.882361 -0.470574
vn 0.368219 0.842788 -0.392585
vn 0.370115 0.842405 -0.391624
vn 0.537527 0.789924 -0.295101
vn 0.537527 0.789924 -0.295101
s 1
g Neuphe
usemtl standardSurface2SG
f 1/1/1 2/2/2 36/3/3 25/4/4
f 2/2/2 3/5/5 35/6/6 36/3/3
f 3/98/5 4/7/7 34/8/8 35/97/6
f 4/7/7 5/9/9 33/10/10 34/8/8
f 5/9/9 6/11/11 32/12/12 33/10/10
f 6/11/11 7/13/13 31/14/14 32/12/12
f 7/13/13 8/91/15 30/16/16 31/14/14
f 8/91/15 9/90/17 29/18/18 30/16/16
f 9/90/17 10/88/19 28/20/20 29/18/18
f 10/88/19 11/89/21 27/22/22 28/20/20
f 11/89/21 12/23/23 26/24/24 27/22/22
f 12/23/23 1/1/1 25/4/4 26/24/24
f 26/24/24 25/4/4 37/37/25 38/38/26
f 27/22/22 26/24/24 38/38/26 39/39/27
f 28/20/20 27/22/22 39/39/27 40/40/28
f 29/18/18 28/20/20 40/40/28 41/41/29
f 30/16/16 29/18/18 41/41/29 42/42/30
f 31/14/14 30/16/16 42/42/30 43/43/31
f 32/12/12 31/14/14 43/43/31 44/44/32
f 33/10/10 32/12/12 44/44/32 45/45/33
f 34/8/8 33/10/10 45/45/33 46/46/34
f 35/97/6 34/8/8 46/46/34 47/96/35
f 36/3/3 35/6/6 47/47/35 48/48/36
f 25/4/4 36/3/3 48/48/36 37/37/25
f 38/38/26 37/37/25 49/49/37 50/50/38
f 39/39/27 38/38/26 50/50/38 51/51/39
f 40/40/28 39/39/27 51/51/39 52/52/40
f 41/41/29 40/40/28 52/52/40 53/53/41
f 42/42/30 41/41/29 53/53/41 54/54/42
f 43/43/31 42/42/30 54/54/42 55/55/43
f 44/44/32 43/43/31 55/55/43 56/56/44
f 45/45/33 44/44/32 56/56/44 57/57/45
f 46/46/34 45/45/33 57/57/45 58/58/46
f 47/96/35 46/46/34 58/58/46 59/95/47
f 48/48/36 47/47/35 59/59/47 60/60/48
f 37/37/25 48/48/36 60/60/48 49/49/37
f 50/50/38 49/49/37 61/61/49 62/62/50
f 51/51/39 50/50/38 62/62/50 63/63/51
f 52/52/40 51/51/39 63/63/51 64/64/52
f 53/53/41 52/52/40 64/64/52 65/65/53
f 54/54/42 53/53/41 65/65/53 66/66/54
f 55/55/43 54/54/42 66/66/54 67/67/55
f 56/56/44 55/55/43 67/67/55 68/68/56
f 57/57/45 56/56/44 68/68/56 69/69/57
f 58/58/46 57/57/45 69/69/57 70/70/58
f 59/95/47 58/58/46 70/70/58 71/93/59
f 60/60/48 59/59/47 71/71/59 72/72/60
f 49/49/37 60/60/48 72/72/60 61/61/49
f 62/62/50 61/61/49 13/25/61 24/36/62
f 63/63/51 62/62/50 24/36/62 23/35/63
f 64/64/52 63/63/51 23/35/63 22/34/64
f 65/65/53 64/64/52 22/34/64 21/33/65
f 66/66/54 65/65/53 21/33/65 20/32/66
f 67/67/55 66/66/54 20/32/66 19/31/67
f 68/68/56 67/67/55 19/31/67 18/30/68
f 69/69/57 68/68/56 18/30/68 17/29/69
f 70/70/58 69/69/57 17/29/69 16/28/70
f 71/93/59 70/70/58 16/28/70 15/94/71
f 72/72/60 71/71/59 15/27/71 14/26/72
f 61/61/49 72/72/60 14/26/72 13/25/61
s 2
f 8/15/73 7/92/74 73/73/75 74/74/76
f 9/17/77 8/15/73 74/74/76 75/75/78
f 10/19/79 9/17/77 75/75/78 76/76/80
f 11/21/81 10/19/79 76/76/80 77/77/82
s 3
f 74/74/83 73/73/84 78/78/85 79/79/86
f 75/75/87 74/74/83 79/79/86 80/80/88
s 4
f 76/76/89 75/75/90 80/80/91 81/81/92
f 77/77/93 76/76/89 81/81/92 82/82/94
s 5
f 79/79/95 78/78/96 83/83/97 84/84/98
f 80/80/99 79/79/95 84/84/98 85/85/100
f 81/81/101 80/80/99 85/85/100 86/86/102
f 82/82/103 81/81/101 86/86/102 87/87/104
