# This file uses centimeters as units for non-parametric coordinates.

mtllib Grass.mtl
g default
v -0.198168 0.000000 0.000000
v -0.099084 0.000000 0.000000
v 0.000000 0.000000 0.000000
v 0.099084 0.000000 0.000000
v 0.198168 0.000000 0.000000
v -0.198168 0.066129 0.000000
v -0.099084 0.066129 0.000000
v 0.000000 0.066129 0.000000
v 0.099084 0.066129 0.000000
v 0.198168 0.066129 0.000000
v -0.198168 0.148486 0.000000
v -0.099084 0.148486 0.000000
v 0.000000 0.148486 0.000000
v 0.099084 0.148486 0.000000
v 0.198168 0.148486 0.000000
v -0.198168 0.214615 0.000000
v -0.099084 0.214615 0.000000
v 0.000000 0.214615 0.000000
v 0.099084 0.214615 0.000000
v 0.198168 0.214615 0.000000
vt 0.000000 0.000000
vt 0.250000 0.000000
vt 0.500000 0.000000
vt 0.750000 0.000000
vt 1.000000 0.000000
vt 0.000000 0.250000
vt 0.250000 0.250000
vt 0.500000 0.250000
vt 0.750000 0.250000
vt 1.000000 0.250000
vt 0.000000 0.750000
vt 0.250000 0.750000
vt 0.500000 0.750000
vt 0.750000 0.750000
vt 1.000000 0.750000
vt 0.000000 1.000000
vt 0.250000 1.000000
vt 0.500000 1.000000
vt 0.750000 1.000000
vt 1.000000 1.000000
vn 0.000000 -0.000000 1.000000
vn 0.000000 -0.000000 1.000000
vn 0.000000 0.000000 1.000000
vn 0.000000 0.000000 1.000000
vn 0.000000 -0.000000 1.000000
vn 0.000000 0.000000 1.000000
vn 0.000000 -0.000000 1.000000
vn 0.000000 0.000000 1.000000
vn 0.000000 -0.000000 1.000000
vn 0.000000 0.000000 1.000000
vn 0.000000 0.000000 1.000000
vn 0.000000 0.000000 1.000000
vn 0.000000 0.000000 1.000000
vn 0.000000 0.000000 1.000000
vn 0.000000 0.000000 1.000000
vn 0.000000 0.000000 1.000000
vn 0.000000 0.000000 1.000000
vn 0.000000 0.000000 1.000000
vn 0.000000 0.000000 1.000000
vn 0.000000 0.000000 1.000000
s 1
g Mesh_Grass
usemtl initialShadingGroup
f 1/1/1 2/2/2 7/7/3 6/6/4
f 2/2/2 3/3/5 8/8/6 7/7/3
f 3/3/5 4/4/7 9/9/8 8/8/6
f 4/4/7 5/5/9 10/10/10 9/9/8
f 7/7/3 12/12/11 11/11/12 6/6/4
f 8/8/6 13/13/13 12/12/11 7/7/3
f 9/9/8 14/14/14 13/13/13 8/8/6
f 10/10/10 15/15/15 14/14/14 9/9/8
f 11/11/12 12/12/11 17/17/16 16/16/17
f 12/12/11 13/13/13 18/18/18 17/17/16
f 13/13/13 14/14/14 19/19/19 18/18/18
f 14/14/14 15/15/15 20/20/20 19/19/19
